<?xml version="1.0" encoding="utf-8"?>
<!-- Generator: Adobe Illustrator 17.1.0, SVG Export Plug-In . SVG Version: 6.00 Build 0)  -->
<!DOCTYPE svg PUBLIC "-//W3C//DTD SVG 1.1//EN" "http://www.w3.org/Graphics/SVG/1.1/DTD/svg11.dtd">
<svg version="1.1" xmlns="http://www.w3.org/2000/svg" xmlns:xlink="http://www.w3.org/1999/xlink" x="0px" y="0px" width="24px"
	 height="24px" viewBox="0 0 24 24" enable-background="new 0 0 24 24" xml:space="preserve">
<g id="Filled_Icons">
	<g>
		<path d="M0,10h24v12.5c0,0.276-0.224,0.5-0.5,0.5h-23C0.224,23,0,22.776,0,22.5V10z M13,13h4v-1h-4V13z M13,15h8v-1h-8V15z M13,17
			h8v-1h-8V17z M13,19h8v-1h-8V19z M3,20h8v-0.5c0-1.24-0.623-2.638-2.249-3.22C9.212,15.826,9.5,15.197,9.5,14.5
			C9.5,13.122,8.378,12,7,12s-2.5,1.122-2.5,2.5c0,0.697,0.288,1.326,0.749,1.78C3.623,16.862,3,18.26,3,19.5V20z"/>
		<path d="M24,5.5V9H0V5.5C0,5.224,0.224,5,0.5,5H9V4c0-1.654,1.346-3,3-3s3,1.346,3,3v1h8.5C23.776,5,24,5.224,24,5.5z M13,4
			c0-0.552-0.448-1-1-1c-0.553,0-1,0.448-1,1s0.447,1,1,1C12.552,5,13,4.552,13,4z"/>
	</g>
</g>
<g id="Outline_Icons" display="none">
	<g display="inline">
		<polyline fill="none" stroke="#000000" stroke-linecap="round" stroke-linejoin="round" stroke-miterlimit="10" points="16.5,6.5 
			23.5,6.5 23.5,22.5 0.5,22.5 0.5,6.5 7.5,6.5 		"/>
		
			<line fill="none" stroke="#000000" stroke-linecap="round" stroke-linejoin="round" stroke-miterlimit="10" x1="0.5" y1="10.5" x2="23.5" y2="10.5"/>
		
			<line fill="none" stroke="#000000" stroke-linecap="round" stroke-linejoin="round" stroke-miterlimit="10" x1="12.5" y1="14.5" x2="16.5" y2="14.5"/>
		
			<line fill="none" stroke="#000000" stroke-linecap="round" stroke-linejoin="round" stroke-miterlimit="10" x1="12.5" y1="16.5" x2="18.5" y2="16.5"/>
		
			<line fill="none" stroke="#000000" stroke-linecap="round" stroke-linejoin="round" stroke-miterlimit="10" x1="12.5" y1="18.5" x2="17.5" y2="18.5"/>
		<path fill="none" stroke="#000000" stroke-linecap="round" stroke-linejoin="round" stroke-miterlimit="10" d="M12,1.5
			c-1.381,0-2.5,1.119-2.5,2.5v4.5h5V4C14.5,2.619,13.381,1.5,12,1.5z"/>
		
			<circle fill="none" stroke="#000000" stroke-linecap="round" stroke-linejoin="round" stroke-miterlimit="10" cx="7" cy="15" r="1.5"/>
		<path fill="none" stroke="#000000" stroke-linecap="round" stroke-linejoin="round" stroke-miterlimit="10" d="M9.5,19.5h-5
			c0-1.657,1.119-3,2.5-3S9.5,17.843,9.5,19.5z"/>
	</g>
</g>
</svg>
